<?xml version="1.0" encoding="utf-8"?>
<!-- Generator: Adobe Illustrator 25.2.0, SVG Export Plug-In . SVG Version: 6.00 Build 0)  -->
<svg version="1.1" id="Component_6_1" width="205" height="68" xmlns="http://www.w3.org/2000/svg" xmlns:xlink="http://www.w3.org/1999/xlink" x="0px"
	 y="0px" viewBox="0 0 216 77" style="enable-background:new 0 0 216 77;" xml:space="preserve">
<style type="text/css">
	.st0{fill:none;}
	.st1{fill:url(#Shape_2_copy_1_);}
	.st2{fill:#FFFFFF;}
	.st3{fill:#474646;}
	.st4{fill:#067FD2;}
	.st5{opacity:0.798;fill:#343434;enable-background:new    ;}
</style>
<g id="_9Hz-Logo_Light" transform="translate(0 9)">
	<rect id="Rectangle_45" class="st0" width="205" height="68"/>
	
		<linearGradient id="Shape_2_copy_1_" gradientUnits="userSpaceOnUse" x1="-840.4736" y1="561.5459" x2="-840.4736" y2="560.5459" gradientTransform="matrix(84.8756 0 0 -59.2612 71381.8516 33282.6445)">
		<stop  offset="0" style="stop-color:#037FD2"/>
		<stop  offset="1" style="stop-color:#0192F3"/>
	</linearGradient>
	<path id="Shape_2_copy" class="st1" d="M56.5,48L56.5,48c-8.1,13.4-25.6,17.7-39,9.6S-0.3,32,7.8,18.5s25.6-17.8,39-9.7
		c8.5,5.1,13.7,14.4,13.7,24.3c0,1.5-0.1,3-0.4,4.5c5.7-6.8,15.8-7.7,22.6-2c6.8,5.7,7.7,15.8,2,22.6c-5.7,6.8-15.8,7.7-22.6,2
		C58.6,57.3,56.5,52.8,56.5,48L56.5,48z"/>
	<path id="Shape_3" class="st2" d="M28.2,52.8c-1.8,0-3.6-0.1-5.3-0.3l-5.5-6.9h0.2c0.5,0,2.3,0,4.6-0.1c1.3-0.1,2.6-0.2,3.9-0.3
		c1.5-0.2,3-0.3,4.3-0.6c2.7-0.4,5.4-1.1,8-2.2c0.5-0.2,1-0.5,1.5-0.8c0.4-0.3,0.8-0.6,1.2-1c0.3-0.3,0.6-0.7,0.8-1.1
		c0.2-0.4,0.3-0.8,0.4-1.3h-21c-0.5,0.1-1.1,0.1-1.6,0.1c-0.6,0-1.3-0.1-1.9-0.2c-0.8-0.2-1.5-0.4-2.1-0.8c-1.7-1-2.9-2.7-3.3-4.7
		V21.6c0-0.3,0.1-0.6,0.2-1c0.1-0.3,0.2-0.7,0.3-1c0.2-0.4,0.3-0.8,0.6-1.1c0.5-0.8,1.2-1.6,2-2.1c0.5-0.3,1-0.5,1.5-0.7
		c0.6-0.2,1.3-0.3,1.9-0.3h27.7c0.3,0.1,0.6,0.1,0.9,0.2c0.7,0.2,1.3,0.5,2,0.9c0.8,0.5,1.5,1.1,2.1,1.9c0.3,0.4,0.6,0.9,0.8,1.4
		c0.2,0.6,0.4,1.2,0.4,1.8v10.5c-0.1,1-0.2,1.9-0.4,2.9c-0.2,1-0.4,2-0.7,3c-0.4,1.2-0.8,2.4-1.4,3.5c-1.2,2.7-3.1,5-5.4,6.9
		c-0.6,0.5-1.3,1-2,1.4c-0.8,0.4-1.5,0.8-2.3,1.2c-0.9,0.4-1.8,0.7-2.7,0.9c-1,0.3-2,0.4-3.1,0.6c0,0-0.7,0.1-1.9,0.2
		C31.6,52.7,29.9,52.8,28.2,52.8z M41.6,22.1C41.6,22.1,41.6,22.1,41.6,22.1H23.2c-0.4,0-0.7,0.1-1,0.3c-0.2,0.2-0.4,0.4-0.6,0.7
		c-0.2,0.3-0.3,0.6-0.3,1v5.4c-0.1,0.7,0.2,1.3,0.7,1.8c0.4,0.3,0.8,0.4,1.2,0.4c0.2,0,0.4,0,0.5-0.1H41c0.7,0.1,1.4-0.2,1.9-0.7
		c0.1-0.1,0.2-0.3,0.3-0.5c0.1-0.3,0.1-0.6,0.1-0.9v-5c-0.1-0.4-0.2-0.9-0.4-1.3c-0.1-0.3-0.3-0.5-0.5-0.7
		C42.2,22.3,41.9,22.1,41.6,22.1L41.6,22.1z"/>
	<ellipse id="Shape_4" class="st2" cx="72.6" cy="48.2" rx="11.4" ry="11.4"/>
	<path id="Path_1" class="st3" d="M65.9,42.7h2.2v4.4h2.2v-4.4h2.3v11.1h-2.3v-4.4h-2.2v4.4h-2.2V42.7z M73.2,52.7
		c0-0.1,0-0.1,0-0.2c0-0.1,0-0.1,0.1-0.2l3.5-7.4h-3.6v-2.3h5.9c0.2,0,0.5,0.1,0.6,0.3c0.1,0.2,0.2,0.4,0.2,0.7v0.2
		c0,0.1,0,0.1,0,0.2l-3.5,7.4h3.5v2.2h-5.8c-0.1,0-0.3,0-0.4-0.1c-0.1-0.1-0.2-0.2-0.3-0.3c-0.1-0.1-0.1-0.2-0.2-0.4
		C73.2,52.9,73.2,52.8,73.2,52.7L73.2,52.7z"/>
	<path id="Path_3" class="st4" d="M71.4,6l7.8,11.8V5.9c0-0.6,0.1-1.2,0.5-1.7c0.3-0.4,0.8-0.6,1.3-0.6c0.5,0,1,0.2,1.4,0.6
		C82.9,4.7,83,5.3,83,5.9v15.8c0,1.8-0.7,2.6-2.2,2.6c-0.3,0-0.7,0-1-0.2c-0.3-0.1-0.6-0.3-0.8-0.5c-0.3-0.2-0.5-0.5-0.7-0.8
		c-0.2-0.3-0.4-0.6-0.7-0.9L70,10.3V22c0,0.6-0.1,1.2-0.5,1.7c-0.7,0.8-1.9,0.8-2.7,0.1c0,0,0,0-0.1-0.1c-0.4-0.5-0.6-1.1-0.5-1.7
		V6.6c0-0.5,0.1-1,0.2-1.5c0.2-0.4,0.5-0.8,0.9-1c0.4-0.3,0.8-0.4,1.3-0.4c0.3,0,0.6,0.1,0.9,0.2c0.3,0.1,0.5,0.3,0.7,0.5
		c0.2,0.2,0.4,0.5,0.6,0.8C71,5.4,71.2,5.7,71.4,6z M90.9,11.3v10.8c0,0.6-0.1,1.2-0.5,1.7c-0.3,0.4-0.8,0.6-1.4,0.6
		c-0.5,0-1-0.2-1.3-0.6c-0.4-0.5-0.6-1.1-0.5-1.7V11.4c0-0.6,0.1-1.2,0.5-1.7C88,9.4,88.5,9.1,89,9.2c0.5,0,1,0.2,1.4,0.6
		C90.8,10.2,90.9,10.7,90.9,11.3z M89.1,7.4c-0.5,0-1-0.2-1.3-0.5c-0.7-0.7-0.7-1.9,0-2.6c0,0,0,0,0,0c0.4-0.3,0.8-0.5,1.3-0.5
		c0.5,0,0.9,0.2,1.3,0.5c0.4,0.3,0.6,0.8,0.6,1.4c0,0.5-0.2,1-0.5,1.3C90,7.3,89.5,7.4,89.1,7.4L89.1,7.4z M98.2,11.2v0.5
		c0.6-0.8,1.3-1.4,2.2-1.9c0.8-0.4,1.8-0.6,2.7-0.6c0.9,0,1.8,0.2,2.6,0.6c0.8,0.4,1.4,1,1.7,1.8c0.2,0.5,0.4,1,0.5,1.5
		c0.1,0.7,0.1,1.3,0.1,2v7c0,0.6-0.1,1.2-0.5,1.7c-0.3,0.4-0.8,0.6-1.3,0.6c-0.5,0-1-0.2-1.4-0.6c-0.4-0.5-0.6-1.1-0.5-1.7v-6.2
		c0.1-1-0.1-1.9-0.5-2.8c-0.4-0.7-1.2-1.1-2-1c-0.7,0-1.3,0.2-1.8,0.6c-0.6,0.4-1,1-1.2,1.6c-0.2,1-0.3,2.1-0.3,3.1v4.7
		c0,0.6-0.1,1.2-0.5,1.7c-0.3,0.4-0.8,0.6-1.4,0.6c-0.5,0-1-0.2-1.3-0.6c-0.4-0.5-0.6-1.1-0.5-1.7V11.3c0-0.6,0.1-1.1,0.5-1.6
		c0.3-0.4,0.8-0.6,1.3-0.5c0.3,0,0.6,0.1,0.9,0.2c0.3,0.2,0.5,0.4,0.6,0.7C98.1,10.5,98.2,10.8,98.2,11.2L98.2,11.2z M122.1,17.7
		h-7.3c0,0.8,0.2,1.5,0.5,2.2c0.6,1.2,1.8,2,3.2,2c0.4,0,0.8,0,1.2-0.2c0.4-0.1,0.7-0.3,1.1-0.5c0.3-0.2,0.7-0.5,1-0.7
		c0.3-0.3,0.7-0.6,1.1-1c0.2-0.2,0.5-0.3,0.8-0.2c0.3,0,0.7,0.1,0.9,0.3c0.2,0.2,0.4,0.6,0.4,0.9c0,0.4-0.2,0.8-0.4,1.2
		c-0.3,0.5-0.7,0.9-1.2,1.3c-0.6,0.5-1.3,0.8-2,1c-0.9,0.3-1.8,0.4-2.8,0.4c-2.1,0.1-4.1-0.6-5.6-2.1c-1.4-1.5-2.1-3.5-2-5.6
		c0-1,0.2-2.1,0.5-3.1c0.3-0.9,0.8-1.7,1.4-2.4c0.6-0.7,1.4-1.2,2.3-1.6c1-0.4,2-0.6,3.1-0.5c1.3,0,2.6,0.3,3.8,0.9
		c1,0.6,1.8,1.4,2.3,2.4c0.5,0.9,0.8,1.9,0.8,3c0,0.9-0.3,1.5-0.8,1.8C123.7,17.6,122.9,17.7,122.1,17.7L122.1,17.7z M114.8,15.6
		h6.8c0-1-0.4-2.1-1-2.9c-0.6-0.6-1.5-1-2.4-1c-0.9,0-1.7,0.3-2.3,1C115.2,13.5,114.9,14.5,114.8,15.6L114.8,15.6z"/>
	<path id="Path_4" d="M132.7,6.1v5.7h8.8V6.1c-0.1-0.7,0.1-1.3,0.6-1.8c0.4-0.4,0.9-0.6,1.5-0.6c0.6,0,1.1,0.2,1.5,0.6
		c0.4,0.5,0.6,1.2,0.6,1.9v15.8c0.1,0.7-0.2,1.3-0.6,1.9c-0.4,0.4-0.9,0.6-1.5,0.6c-0.6,0-1.1-0.2-1.5-0.6c-0.4-0.5-0.6-1.2-0.5-1.9
		v-6.7h-8.8v6.7c0.1,0.7-0.2,1.3-0.6,1.9c-0.4,0.4-0.9,0.6-1.5,0.6c-0.6,0-1.1-0.2-1.5-0.6c-0.4-0.5-0.6-1.2-0.5-1.9V6.1
		c0-0.7,0.1-1.3,0.5-1.8c0.4-0.4,0.9-0.6,1.5-0.6c0.6,0,1.1,0.2,1.5,0.6C132.6,4.7,132.8,5.4,132.7,6.1z M160.1,17.7h-7.3
		c0,0.8,0.2,1.5,0.5,2.2c0.6,1.2,1.8,2,3.2,2c0.4,0,0.8,0,1.2-0.2c0.4-0.1,0.7-0.3,1.1-0.5c0.3-0.2,0.7-0.5,1-0.7
		c0.3-0.3,0.7-0.6,1.1-1c0.2-0.2,0.5-0.3,0.8-0.2c0.3,0,0.7,0.1,0.9,0.3c0.2,0.2,0.4,0.6,0.4,0.9c0,0.4-0.2,0.8-0.4,1.2
		c-0.3,0.5-0.7,0.9-1.2,1.3c-0.6,0.5-1.3,0.8-2,1c-0.9,0.3-1.8,0.4-2.8,0.4c-2.1,0.1-4.1-0.6-5.6-2.1c-1.4-1.5-2.1-3.5-2-5.6
		c0-1,0.2-2.1,0.5-3.1c0.3-0.9,0.8-1.7,1.4-2.4c0.6-0.7,1.4-1.2,2.3-1.6c1-0.4,2-0.6,3.1-0.5c1.3,0,2.6,0.3,3.8,0.9
		c1,0.6,1.8,1.4,2.3,2.4c0.5,0.9,0.8,1.9,0.8,3c0,0.9-0.3,1.5-0.8,1.8C161.6,17.6,160.9,17.7,160.1,17.7L160.1,17.7z M152.8,15.6
		h6.8c0-1-0.4-2.1-1-2.9c-0.6-0.6-1.5-1-2.4-1c-0.9,0-1.7,0.3-2.3,1C153.2,13.5,152.8,14.5,152.8,15.6L152.8,15.6z M170,19v3.1
		c0,0.6-0.1,1.2-0.5,1.7c-0.3,0.4-0.8,0.6-1.4,0.6c-0.5,0-1-0.2-1.3-0.6c-0.4-0.5-0.6-1.1-0.5-1.7V11.7c0-1.7,0.6-2.5,1.8-2.5
		c0.5,0,1,0.2,1.3,0.6c0.3,0.5,0.5,1.1,0.5,1.7c0.4-0.7,0.8-1.2,1.4-1.7c0.5-0.4,1.2-0.6,1.9-0.6c0.8,0,1.6,0.2,2.3,0.6
		c0.6,0.3,1.1,0.9,1.1,1.6c0,0.4-0.2,0.8-0.5,1.1c-0.3,0.3-0.6,0.4-1,0.4c-0.3,0-0.7-0.1-1-0.3c-0.4-0.2-0.9-0.2-1.4-0.3
		c-0.5,0-1,0.1-1.3,0.4c-0.4,0.3-0.7,0.8-0.8,1.3c-0.2,0.7-0.3,1.3-0.4,2C170,16.9,170,17.8,170,19L170,19z M179.1,9.5h0.4V7.3
		c0-0.6,0-1.1,0-1.4c0-0.3,0.1-0.6,0.3-0.9c0.2-0.3,0.4-0.5,0.6-0.6c0.3-0.2,0.6-0.2,0.9-0.2c0.5,0,0.9,0.2,1.3,0.5
		c0.3,0.2,0.4,0.5,0.5,0.9c0.1,0.5,0.1,1,0.1,1.5v2.5h1.4c0.4,0,0.9,0.1,1.2,0.4c0.3,0.2,0.4,0.6,0.4,1c0,0.4-0.2,0.9-0.6,1.1
		c-0.5,0.2-1.1,0.3-1.7,0.3h-0.7v6.9c0,0.5,0,0.9,0.1,1.3c0,0.3,0.1,0.6,0.3,0.8c0.2,0.2,0.6,0.3,0.9,0.3c0.3,0,0.6,0,0.9-0.1
		c0.3-0.1,0.6-0.1,0.9-0.1c0.3,0,0.6,0.1,0.8,0.4c0.2,0.2,0.4,0.6,0.4,0.9c0,0.6-0.4,1.2-1,1.4c-0.9,0.4-1.9,0.5-2.8,0.5
		c-0.9,0.1-1.8-0.1-2.7-0.6c-0.6-0.4-1-1-1.2-1.6c-0.2-0.9-0.3-1.8-0.3-2.8v-7.2H179c-0.4,0-0.9-0.1-1.2-0.4c-0.3-0.2-0.4-0.6-0.4-1
		c0-0.4,0.2-0.7,0.4-1C178.2,9.6,178.7,9.5,179.1,9.5L179.1,9.5z M199,13.4l-6.8,7.7h7.3c0.5,0,1,0.1,1.3,0.4
		c0.3,0.3,0.5,0.7,0.5,1.1c0,0.4-0.2,0.8-0.4,1c-0.4,0.3-0.9,0.4-1.3,0.4h-10.1c-0.6,0-1.1-0.1-1.6-0.5c-0.4-0.3-0.6-0.8-0.5-1.3
		c0-0.4,0.1-0.7,0.4-1c0.2-0.3,0.8-0.9,1.5-1.8c0.8-0.9,1.6-1.7,2.2-2.5c0.7-0.7,1.3-1.4,1.9-2.1c0.6-0.6,1.1-1.2,1.4-1.6
		c0.4-0.4,0.7-0.8,0.9-1.2H190c-0.6,0-1.2,0-1.7-0.2c-0.4-0.1-0.6-0.5-0.6-1.1c0-0.4,0.1-0.8,0.4-1c0.4-0.3,0.8-0.4,1.3-0.4h8.6
		c0.6,0,1.3,0.1,1.8,0.3c0.4,0.3,0.7,0.7,0.6,1.3c0,0.2,0,0.4-0.1,0.6c-0.1,0.2-0.2,0.4-0.3,0.5c-0.1,0.1-0.2,0.3-0.4,0.5
		C199.5,12.9,199.3,13.2,199,13.4L199,13.4z"/>
	<path id="Path_2" class="st5" d="M89.3,38.4v-6.6h2.3c0.4,0,0.8,0,1.2,0.1c0.4,0.1,0.7,0.2,1,0.5c0.4,0.3,0.6,0.7,0.8,1.1
		c0.2,0.5,0.3,1,0.3,1.6c0,0.5-0.1,0.9-0.2,1.3c-0.1,0.3-0.3,0.7-0.5,1c-0.2,0.2-0.4,0.4-0.6,0.6c-0.2,0.2-0.5,0.3-0.8,0.3
		c-0.4,0.1-0.7,0.1-1.1,0.1L89.3,38.4L89.3,38.4z M90.1,37.6h1.4c0.3,0,0.7,0,1-0.1c0.2-0.1,0.4-0.2,0.6-0.3
		c0.2-0.2,0.4-0.5,0.5-0.8c0.1-0.4,0.2-0.8,0.2-1.3c0-0.6-0.1-1.1-0.3-1.6c-0.2-0.3-0.5-0.6-0.8-0.8c-0.4-0.1-0.8-0.2-1.1-0.1h-1.4
		L90.1,37.6z M96,38.4v-6.6h4.8v0.8h-3.9v2h3.7v0.8h-3.7v2.3h4.1v0.8L96,38.4z M102.1,38.4v-6.6h0.9v5.9h3.3v0.8L102.1,38.4z
		 M107.5,38.4v-6.6h0.9v6.6H107.5z M111.8,38.4l-2.6-6.6h1l1.7,4.8c0.1,0.4,0.3,0.7,0.3,1.1c0.1-0.4,0.2-0.7,0.4-1.1l1.8-4.8h0.9
		l-2.6,6.6H111.8z M116.1,38.4v-6.6h4.8v0.8H117v2h3.7v0.8H117v2.3h4.1v0.8L116.1,38.4z M122.3,38.4v-6.6h2.9c0.5,0,0.9,0,1.4,0.2
		c0.3,0.1,0.6,0.3,0.7,0.6c0.2,0.3,0.3,0.6,0.3,1c0,0.4-0.2,0.9-0.5,1.2c-0.4,0.4-0.9,0.6-1.4,0.6c0.2,0.1,0.4,0.2,0.5,0.3
		c0.3,0.3,0.5,0.6,0.7,0.9l1.2,1.8h-1.1l-0.9-1.4c-0.3-0.4-0.5-0.7-0.6-0.9c-0.1-0.2-0.3-0.3-0.4-0.4c-0.1-0.1-0.3-0.1-0.4-0.2
		c-0.2,0-0.3,0-0.5,0h-1v3L122.3,38.4z M123.2,34.6h1.9c0.3,0,0.6,0,0.9-0.1c0.2-0.1,0.4-0.2,0.5-0.4c0.1-0.2,0.2-0.4,0.2-0.6
		c0-0.3-0.1-0.6-0.3-0.8c-0.3-0.2-0.7-0.3-1.1-0.3h-2.1L123.2,34.6z M129.1,38.4v-6.6h0.9v6.6H129.1z M131.6,38.4v-6.6h0.9l3.5,5.2
		v-5.2h0.8v6.6h-0.9l-3.5-5.2v5.2H131.6z M141.4,35.7V35h2.8v2.5c-0.4,0.3-0.9,0.6-1.3,0.8c-0.5,0.2-0.9,0.3-1.4,0.3
		c-0.6,0-1.2-0.1-1.8-0.4c-0.5-0.3-0.9-0.7-1.2-1.2c-0.3-0.5-0.4-1.2-0.4-1.8c0-0.6,0.1-1.2,0.4-1.8c0.2-0.5,0.7-1,1.2-1.2
		c0.5-0.3,1.1-0.4,1.8-0.4c0.4,0,0.9,0.1,1.3,0.2c0.4,0.1,0.7,0.4,0.9,0.7c0.2,0.3,0.4,0.7,0.5,1.1l-0.8,0.2
		c-0.1-0.3-0.2-0.6-0.4-0.8c-0.2-0.2-0.4-0.4-0.6-0.5c-0.3-0.1-0.6-0.2-0.9-0.2c-0.4,0-0.7,0.1-1,0.2c-0.3,0.1-0.5,0.3-0.7,0.5
		c-0.2,0.2-0.3,0.4-0.4,0.7c-0.2,0.4-0.3,0.9-0.3,1.3c0,0.5,0.1,1,0.3,1.5c0.2,0.4,0.5,0.7,0.9,0.9c0.4,0.2,0.8,0.3,1.2,0.3
		c0.4,0,0.8-0.1,1.1-0.2c0.3-0.1,0.6-0.3,0.8-0.5v-1.2L141.4,35.7L141.4,35.7z M147.8,36.2l0.8-0.1c0,0.3,0.1,0.6,0.3,0.8
		c0.2,0.2,0.4,0.4,0.7,0.5c0.3,0.1,0.7,0.2,1,0.2c0.3,0,0.6,0,0.9-0.1c0.2-0.1,0.4-0.2,0.6-0.4c0.1-0.2,0.2-0.4,0.2-0.6
		c0-0.2-0.1-0.4-0.2-0.5c-0.2-0.2-0.4-0.3-0.6-0.4c-0.4-0.1-0.8-0.2-1.2-0.3c-0.4-0.1-0.9-0.2-1.3-0.4c-0.3-0.1-0.5-0.4-0.7-0.6
		c-0.2-0.2-0.2-0.5-0.2-0.8c0-0.3,0.1-0.7,0.3-0.9c0.2-0.3,0.5-0.5,0.8-0.7c0.4-0.2,0.8-0.2,1.2-0.2c0.4,0,0.9,0.1,1.3,0.2
		c0.4,0.1,0.7,0.4,0.9,0.7c0.2,0.3,0.3,0.7,0.3,1l-0.8,0.1c0-0.4-0.2-0.7-0.5-1c-0.3-0.2-0.7-0.4-1.2-0.3c-0.4,0-0.8,0.1-1.2,0.3
		c-0.2,0.2-0.4,0.4-0.4,0.7c0,0.2,0.1,0.4,0.3,0.6c0.4,0.2,0.9,0.4,1.3,0.5c0.5,0.1,1,0.2,1.5,0.4c0.3,0.1,0.6,0.4,0.9,0.7
		c0.2,0.3,0.3,0.6,0.3,0.9c0,0.4-0.1,0.7-0.3,1c-0.2,0.3-0.5,0.6-0.9,0.7c-0.4,0.2-0.8,0.3-1.3,0.3c-0.5,0-1-0.1-1.5-0.3
		c-0.4-0.2-0.7-0.4-1-0.8C147.9,37.1,147.8,36.6,147.8,36.2L147.8,36.2z M154,35.1c-0.1-0.9,0.3-1.9,0.9-2.6c0.6-0.6,1.4-1,2.3-0.9
		c0.6,0,1.2,0.1,1.7,0.4c0.5,0.3,0.9,0.7,1.1,1.2c0.3,0.6,0.4,1.2,0.4,1.8c0,0.6-0.1,1.2-0.4,1.8c-0.3,0.5-0.7,0.9-1.2,1.2
		c-0.5,0.3-1,0.4-1.6,0.4c-0.6,0-1.2-0.1-1.7-0.5c-0.5-0.3-0.9-0.7-1.1-1.2C154.1,36.3,154,35.7,154,35.1L154,35.1z M154.9,35.1
		c0,0.7,0.2,1.4,0.6,1.9c0.9,0.9,2.3,0.9,3.2,0.1c0,0,0,0,0.1-0.1c0.5-0.6,0.7-1.3,0.6-2c0-0.5-0.1-1-0.3-1.4
		c-0.2-0.4-0.4-0.7-0.8-0.9c-0.4-0.2-0.8-0.3-1.2-0.3c-0.6,0-1.2,0.2-1.6,0.6C155.1,33.6,154.8,34.4,154.9,35.1L154.9,35.1z
		 M161.5,38.4v-6.6h0.9v5.9h3.3v0.8L161.5,38.4z M171,31.7h0.9v3.8c0,0.5-0.1,1.1-0.2,1.6c-0.2,0.4-0.4,0.7-0.8,1
		c-0.5,0.3-1,0.4-1.6,0.4c-0.5,0-1.1-0.1-1.5-0.3c-0.4-0.2-0.7-0.5-0.8-0.9c-0.2-0.5-0.3-1.1-0.3-1.7v-3.8h0.9v3.8
		c0,0.4,0,0.9,0.2,1.3c0.1,0.3,0.3,0.5,0.6,0.6c0.3,0.2,0.6,0.2,1,0.2c0.5,0,1-0.1,1.4-0.4c0.3-0.5,0.5-1.1,0.4-1.7L171,31.7z
		 M175.1,38.4v-5.9h-2.2v-0.8h5.3v0.8h-2.2v5.9H175.1z M179.2,38.4v-6.6h0.9v6.6H179.2z M181.3,35.1c-0.1-0.9,0.3-1.9,0.9-2.6
		c0.6-0.6,1.4-1,2.3-0.9c0.6,0,1.2,0.1,1.7,0.4c0.5,0.3,0.9,0.7,1.1,1.2c0.3,0.6,0.4,1.2,0.4,1.8c0,0.6-0.1,1.2-0.4,1.8
		c-0.3,0.5-0.7,0.9-1.2,1.2c-0.5,0.3-1,0.4-1.6,0.4c-0.6,0-1.2-0.1-1.7-0.5c-0.5-0.3-0.9-0.7-1.1-1.2
		C181.5,36.3,181.3,35.7,181.3,35.1L181.3,35.1z M182.3,35.1c0,0.7,0.2,1.4,0.6,1.9c0.9,0.9,2.3,0.9,3.2,0.1c0,0,0,0,0.1-0.1
		c0.5-0.6,0.7-1.3,0.6-2c0-0.5-0.1-1-0.3-1.4c-0.2-0.4-0.4-0.7-0.8-0.9c-0.4-0.2-0.8-0.3-1.2-0.3c-0.6,0-1.2,0.2-1.6,0.6
		C182.4,33.6,182.2,34.4,182.3,35.1L182.3,35.1z M188.8,38.4v-6.6h0.9l3.5,5.2v-5.2h0.8v6.6h-0.9l-3.5-5.2v5.2H188.8z M195.2,36.2
		l0.8-0.1c0,0.3,0.1,0.6,0.3,0.8c0.2,0.2,0.4,0.4,0.7,0.5c0.3,0.1,0.7,0.2,1,0.2c0.3,0,0.6,0,0.9-0.1c0.2-0.1,0.4-0.2,0.6-0.4
		c0.1-0.2,0.2-0.4,0.2-0.6c0-0.2-0.1-0.4-0.2-0.5c-0.2-0.2-0.4-0.3-0.6-0.4c-0.4-0.1-0.8-0.2-1.2-0.3c-0.4-0.1-0.9-0.2-1.3-0.4
		c-0.3-0.1-0.5-0.4-0.7-0.6c-0.2-0.2-0.2-0.5-0.2-0.8c0-0.3,0.1-0.7,0.3-0.9c0.2-0.3,0.5-0.5,0.8-0.7c0.4-0.2,0.8-0.2,1.2-0.2
		c0.4,0,0.9,0.1,1.3,0.2c0.4,0.1,0.7,0.4,0.9,0.7c0.2,0.3,0.3,0.7,0.3,1l-0.8,0.1c0-0.4-0.2-0.7-0.5-1c-0.3-0.2-0.7-0.4-1.2-0.3
		c-0.4,0-0.8,0.1-1.2,0.3c-0.2,0.2-0.4,0.4-0.4,0.7c0,0.2,0.1,0.4,0.3,0.6c0.4,0.2,0.9,0.4,1.3,0.5c0.5,0.1,1,0.2,1.5,0.4
		c0.3,0.1,0.6,0.4,0.9,0.7c0.2,0.3,0.3,0.6,0.3,0.9c0,0.4-0.1,0.7-0.3,1c-0.2,0.3-0.5,0.6-0.9,0.7c-0.4,0.2-0.8,0.3-1.3,0.3
		c-0.5,0-1-0.1-1.5-0.3c-0.4-0.2-0.7-0.4-1-0.8C195.4,37.1,195.2,36.6,195.2,36.2L195.2,36.2z"/>
</g>
</svg>
